# Blender v2.78 (sub 0) OBJ File: ''
# www.blender.org
mtllib cubish.mtl
o Cube
v 1.398894 -0.590581 -0.590581
v 1.398894 -0.590581 1.785466
v -0.191687 -0.590581 1.785466
v -1.000000 -1.000000 -1.000000
v 0.748325 1.561224 -0.748324
v 0.748324 1.561224 0.748325
v -0.748325 1.561224 0.748324
v -0.748324 1.561224 -0.748324
v 1.398894 0.590581 -0.590581
v 0.999999 1.000000 1.000001
v -1.000000 1.000000 -1.000000
v -0.191687 0.590581 1.785465
v 1.000000 -1.000000 -1.000000
v 1.000000 -1.000000 1.000000
v 1.000000 1.000000 -0.999999
v -1.000000 -1.000000 1.000000
v -1.000000 1.000000 1.000000
v 1.398893 0.590581 1.785466
vn 0.0000 -1.0000 0.0000
vn 0.0000 1.0000 0.0000
vn 1.0000 -0.0000 0.0000
vn -0.0000 -0.0000 1.0000
vn -1.0000 -0.0000 -0.0000
vn 0.0000 0.0000 -1.0000
vn 0.9125 0.4092 0.0000
vn 0.0000 0.4092 -0.9125
vn -0.0000 0.4092 0.9125
vn -0.9125 0.4092 -0.0000
vn 0.7163 -0.6978 -0.0000
vn 0.7163 -0.0000 -0.6978
vn 0.0000 -0.8868 0.4622
vn -0.6969 0.0000 0.7172
vn 0.7163 0.6978 0.0000
vn -0.0000 0.8868 0.4622
usemtl Material
s off
f 13//1 14//1 16//1 4//1
f 5//2 8//2 7//2 6//2
f 1//3 9//3 18//3 2//3
f 2//4 18//4 12//4 3//4
f 16//5 17//5 11//5 4//5
f 15//6 13//6 4//6 11//6
f 5//7 6//7 10//7 15//7
f 8//8 5//8 15//8 11//8
f 6//9 7//9 17//9 10//9
f 7//10 8//10 11//10 17//10
f 1//11 2//11 14//11 13//11
f 9//12 1//12 13//12 15//12
f 2//13 3//13 16//13 14//13
f 3//14 12//14 17//14 16//14
f 18//15 9//15 15//15 10//15
f 12//16 18//16 10//16 17//16
